<?xml version="1.0" encoding="UTF-8"?>
<svg width="160px" height="21px" viewBox="0 0 160 21" version="1.1" xmlns="http://www.w3.org/2000/svg" xmlns:xlink="http://www.w3.org/1999/xlink">
    <!-- Generator: Sketch 55 (78076) - https://sketchapp.com -->
    <title>Group</title>
    <desc>Created with Sketch.</desc>
    <g id="Page-1" stroke="none" stroke-width="1" fill="none" fill-rule="evenodd">
        <g id="Landing" transform="translate(-995.000000, -434.000000)" fill="#E2725B">
            <g id="Group" transform="translate(995.000000, 434.000000)">
                <path d="M110.780918,3.1719964 C109.446918,4.2949964 108.270918,5.5459964 107.574918,7.1689964 C109.025918,6.1449964 110.188918,4.8899964 110.780918,3.1719964 Z M127.140918,5.2419964 C125.194918,6.1339964 123.425918,7.2349964 121.835918,9.0399964 C124.441918,8.0919964 126.210918,6.8309964 127.140918,5.2419964 Z M143.933918,13.9649964 C145.031918,15.1199964 148.993918,16.6079964 150.562918,16.4609964 C148.679918,14.7109964 146.348918,14.3289964 143.933918,13.9649964 Z M148.430918,5.8419964 C146.062918,6.9919964 143.780918,9.6819964 143.567918,11.7929964 C145.602918,10.0429964 147.186918,8.0799964 148.430918,5.8419964 Z M100.641918,1.6789964 C98.3779184,3.1869964 96.6759184,5.1499964 95.8729184,7.8089964 C97.9729184,6.1769964 99.5519184,4.1319964 100.641918,1.6789964 Z M133.284918,10.4349964 C135.391918,8.7269964 136.943918,6.6209964 137.908918,4.0919964 C135.496918,5.5809964 134.280918,7.9299964 133.284918,10.4349964 Z M141.578918,18.2699964 C139.506918,15.3299964 136.460918,14.8149964 133.582918,13.9819964 C135.905918,15.8649964 138.312918,17.5859964 141.578918,18.2699964 Z M105.609918,17.8359964 C102.840918,15.4289964 99.4279184,14.6209964 95.9789184,13.9009964 C98.6849184,16.4319964 102.010918,17.4659964 105.609918,17.8359964 Z M115.351918,17.2909964 C114.171918,14.1109964 110.098918,12.0029964 107.307918,12.1199964 C109.347918,14.7379964 112.207918,16.0049964 115.351918,17.2909964 Z M120.293918,12.7169964 C120.812918,15.1639964 125.993918,18.6429964 128.848918,18.4739964 C126.502918,15.7669964 124.044918,13.3299964 120.293918,12.7169964 Z M95.3539184,10.5659964 C96.8389184,10.4529964 98.2049184,10.3629964 99.5689184,10.2429964 C100.936918,10.1219964 102.306918,10.0289964 103.679918,10.0609964 C104.263918,10.0749964 104.616918,9.9019964 104.853918,9.3419964 C105.249918,8.4049964 105.722918,7.4999964 106.160918,6.5799964 C107.355918,4.0699964 109.308918,2.2139964 111.420918,0.496996399 C111.734918,0.240996399 112.082918,0.0469963994 112.490918,0.307996399 C112.886918,0.560996399 113.101918,0.923996399 113.021918,1.4009964 C112.956918,1.7859964 112.865918,2.1689964 112.748918,2.5409964 C111.835918,5.4649964 110.147918,7.7819964 107.439918,9.2989964 C107.180918,9.4439964 106.861918,9.5399964 106.763918,9.8719964 C106.838918,10.0829964 107.016918,10.0449964 107.160918,10.0459964 C110.849918,10.0809964 114.523918,10.3559964 118.188918,10.7489964 C118.719918,10.8059964 119.069918,10.6889964 119.363918,10.2239964 C121.332918,7.1049964 124.129918,4.9669964 127.451918,3.4609964 C127.593918,3.3959964 127.732918,3.3239964 127.876918,3.2619964 C128.340918,3.0609964 128.803918,2.7769964 129.290918,3.2139964 C129.730918,3.6079964 129.867918,4.2489964 129.558918,4.9529964 C128.850918,6.5589964 127.838918,7.9359964 126.367918,8.9379964 C125.121918,9.7879964 123.727918,10.2989964 122.289918,10.7089964 C122.104918,10.7619964 121.921918,10.8219964 121.733918,10.8799964 C121.904918,11.2279964 122.239918,11.1379964 122.495918,11.1649964 C125.144918,11.4579964 127.794918,11.7399964 130.447918,11.9979964 C131.381918,12.0899964 131.330918,12.0369964 131.661918,11.1189964 C132.888918,7.7139964 134.488918,4.5579964 137.689918,2.5339964 C137.789918,2.4709964 137.884918,2.3999964 137.985918,2.3399964 C138.416918,2.0839964 138.832918,1.6989964 139.373918,2.0789964 C139.895918,2.4439964 139.948918,2.9799964 139.846918,3.5519964 C139.706918,4.3319964 139.377918,5.0479964 139.051918,5.7579964 C137.887918,8.2979964 136.304918,10.5019964 133.884918,11.9899964 C134.048918,12.4129964 134.369918,12.2539964 134.604918,12.2669964 C136.838918,12.3859964 139.073918,12.3509964 141.306918,12.2379964 C142.289918,12.1879964 142.324918,12.1759964 142.594918,11.2229964 C143.574918,7.7669964 146.065918,5.6329964 148.986918,3.8789964 C149.656918,3.4759964 150.273918,3.8509964 150.382918,4.6679964 C150.447918,5.1559964 150.263918,5.6009964 150.078918,6.0299964 C149.296918,7.8489964 148.217918,9.4719964 146.818918,10.8789964 C146.656918,11.0429964 146.502918,11.2159964 146.350918,11.3899964 C146.329918,11.4129964 146.340918,11.4619964 146.329918,11.5589964 C148.820918,11.1339964 151.223918,10.4609964 153.574918,9.5869964 C153.955918,9.4459964 154.090918,9.2349964 154.137918,8.8209964 C154.386918,6.5869964 155.881918,5.6639964 157.924918,6.4429964 C159.746918,7.1369964 160.296918,9.8349964 158.874918,11.1489964 C158.154918,11.8149964 157.285918,11.7309964 156.431918,11.5269964 C155.935918,11.4089964 155.470918,11.1639964 155.094918,10.8129964 C154.786918,10.5259964 154.503918,10.5189964 154.141918,10.6859964 C151.634918,11.8389964 148.975918,12.4919964 146.264918,13.0299964 C146.347918,13.3439964 146.618918,13.2399964 146.787918,13.3159964 C146.963918,13.3949964 147.164918,13.4179964 147.351918,13.4729964 C149.122918,13.9939964 150.673918,14.8719964 151.850918,16.3199964 C152.240918,16.7979964 152.786918,17.3689964 152.418918,17.9909964 C152.034918,18.6429964 151.291918,18.3489964 150.695918,18.1999964 C149.404918,17.8759964 148.120918,17.5199964 146.880918,17.0269964 C145.259918,16.3799964 143.805918,15.4749964 142.579918,14.2219964 C142.250918,13.8859964 141.940918,13.5889964 141.384918,13.6059964 C139.978918,13.6479964 138.570918,13.6139964 137.037918,13.6099964 C137.337918,14.1659964 137.767918,14.1879964 138.098918,14.3299964 C140.261918,15.2639964 141.907918,16.7759964 143.147918,18.7549964 C143.251918,18.9199964 143.349918,19.0929964 143.419918,19.2739964 C143.591918,19.7189964 143.375918,19.9429964 142.951918,20.0089964 C142.632918,20.0589964 142.332918,19.9459964 142.029918,19.8679964 C139.568918,19.2319964 137.316918,18.1629964 135.313918,16.5979964 C134.201918,15.7299964 133.119918,14.8229964 132.047918,13.9049964 C131.705918,13.6129964 131.374918,13.4279964 130.910918,13.3879964 C128.803918,13.2089964 126.699918,12.9919964 124.579918,12.7869964 C124.539918,13.1649964 124.869918,13.2219964 125.060918,13.3519964 C127.337918,14.8929964 129.018918,17.0199964 130.742918,19.1049964 C130.865918,19.2539964 130.965918,19.4329964 131.032918,19.6139964 C131.281918,20.2789964 131.017918,20.6799964 130.345918,20.5119964 C126.695918,19.6009964 123.196918,18.3799964 120.668918,15.3549964 C120.082918,14.6539964 119.658918,13.8579964 119.377918,12.9959964 C119.241918,12.5769964 119.033918,12.2849964 118.594918,12.2329964 C116.232918,11.9589964 113.862918,11.8519964 111.458918,11.7169964 C111.523918,12.0619964 111.735918,12.1049964 111.896918,12.1839964 C114.449918,13.4239964 115.854918,15.6679964 117.070918,18.0799964 C117.216918,18.3689964 117.329918,18.7029964 117.118918,18.9709964 C116.889918,19.2609964 116.530918,19.1619964 116.242918,19.0379964 C112.663918,17.5149964 109.038918,16.0409964 106.674918,12.7049964 C106.082918,11.8699964 105.395918,11.6129964 104.399918,11.6409964 C101.421918,11.7239964 98.4539184,11.8939964 95.3449184,12.2219964 C95.7879184,12.5349964 96.1769184,12.5539964 96.5499184,12.6219964 C98.9489184,13.0589964 101.282918,13.6959964 103.480918,14.7819964 C105.054918,15.5589964 106.389918,16.6249964 107.511918,17.9639964 C107.837918,18.3539964 108.263918,18.7859964 107.953918,19.3129964 C107.682918,19.7729964 107.123918,19.6799964 106.658918,19.6129964 C104.675918,19.3259964 102.730918,18.8849964 100.865918,18.1329964 C99.8469184,17.7219964 98.8679184,17.2299964 97.9029184,16.7069964 C96.6449184,16.0269964 95.5349184,15.1529964 94.6739184,14.0159964 C94.2549184,13.4629964 93.6309184,13.2079964 93.1769184,12.7259964 C92.9679184,12.5029964 92.6529184,12.6099964 92.3899184,12.6589964 C88.7569184,13.3369964 85.3819184,14.6239964 82.4319184,16.9059964 C81.9039184,17.3139964 81.3799184,17.7309964 81.0059184,18.2939964 C80.8419184,18.5419964 80.6929184,18.7559964 80.3559184,18.5829964 C80.0179184,18.4119964 79.9289184,18.1289964 80.0539184,17.7939964 C80.2629184,17.2329964 80.6379184,16.7789964 81.0549184,16.3589964 C82.7119184,14.6939964 84.6759184,13.4969964 86.8339184,12.6049964 C88.3969184,11.9599964 90.0149184,11.4729964 91.6829184,11.2229964 C92.6049184,11.0839964 93.1599184,10.6639964 93.4989184,9.8219964 C93.9379184,8.7319964 94.4479184,7.6709964 94.8979184,6.5859964 C95.8059184,4.3989964 97.2029184,2.5859964 99.0549184,1.1259964 C99.5129184,0.764996399 100.012918,0.439996399 100.532918,0.174996399 C101.475918,-0.306003601 102.249918,0.245996399 102.174918,1.3239964 C102.133918,1.9229964 101.839918,2.4419964 101.584918,2.9729964 C100.303918,5.6369964 98.4519184,7.8359964 96.1549184,9.6769964 C95.9419184,9.8479964 95.7359184,10.0279964 95.5349184,10.2119964 C95.4859184,10.2569964 95.4689184,10.3349964 95.3539184,10.5659964 L95.3539184,10.5659964 Z" id="Fill-7"></path>
                <path d="M52.116523,7.13450021 C51.428523,5.50750021 50.259523,4.25050021 48.931523,3.11950021 C49.514523,4.84150021 50.670523,6.10250021 52.116523,7.13450021 Z M37.844523,8.92850021 C36.264523,7.11450021 34.501523,6.00450021 32.560523,5.10050021 C33.482523,6.69550021 35.243523,7.96650021 37.844523,8.92850021 Z M9.07752303,16.1935002 C10.646523,16.3475002 14.616523,14.8805002 15.720523,13.7335002 C13.303523,14.0825002 10.971523,14.4535002 9.07752303,16.1935002 Z M16.098523,11.5625002 C15.896523,9.45050021 13.628523,6.74850021 11.267523,5.58450021 C12.499523,7.83050021 14.072523,9.80150021 16.098523,11.5625002 Z M63.813523,7.83750021 C63.025523,5.17550021 61.334523,3.20250021 59.078523,1.68250021 C60.155523,4.14050021 61.723523,6.19450021 63.813523,7.83750021 Z M21.799523,3.89250021 C22.749523,6.42650021 24.290523,8.54150021 26.388523,10.2615002 C25.406523,7.74950021 24.202523,5.39450021 21.799523,3.89250021 Z M26.070523,13.8055002 C23.188523,14.6235002 20.140523,15.1215002 18.052523,18.0505002 C21.321523,17.3845002 23.738523,15.6755002 26.070523,13.8055002 Z M63.674523,13.9295002 C60.222523,14.6295002 56.805523,15.4205002 54.023523,17.8115002 C57.624523,17.4615002 60.955523,16.4465002 63.674523,13.9295002 Z M52.355523,12.0865002 C49.565523,11.9535002 45.481523,14.0395002 44.283523,17.2145002 C47.435523,15.9455002 50.301523,14.6945002 52.355523,12.0865002 Z M30.780523,18.3245002 C33.635523,18.5075002 38.834523,15.0575002 39.366523,12.6135002 C35.612523,13.2045002 33.140523,15.6285002 30.780523,18.3245002 Z M64.139523,10.2425002 C63.938523,10.0575002 63.734523,9.87650021 63.521523,9.70350021 C61.235523,7.85050021 59.394523,5.64150021 58.128523,2.97050021 C57.876523,2.43850021 57.585523,1.91750021 57.547523,1.31850021 C57.478523,0.240500207 58.255523,-0.307499793 59.195523,0.178500207 C59.714523,0.446500207 60.212523,0.773500207 60.668523,1.13850021 C62.512523,2.60850021 63.900523,4.42850021 64.795523,6.61950021 C65.240523,7.70750021 65.744523,8.77150021 66.177523,9.86350021 C66.511523,10.7085002 67.064523,11.1315002 67.986523,11.2745002 C69.652523,11.5335002 71.267523,12.0295002 72.827523,12.6835002 C74.980523,13.5855002 76.937523,14.7935002 78.585523,16.4685002 C79.000523,16.8905002 79.373523,17.3465002 79.579523,17.9085002 C79.702523,18.2445002 79.611523,18.5265002 79.272523,18.6975002 C78.934523,18.8665002 78.786523,18.6525002 78.623523,18.4045002 C78.253523,17.8375002 77.731523,17.4185002 77.205523,17.0075002 C74.267523,14.7105002 70.900523,13.4045002 67.270523,12.7065002 C67.008523,12.6565002 66.693523,12.5485002 66.483523,12.7695002 C66.027523,13.2495002 65.400523,13.5005002 64.979523,14.0515002 C64.112523,15.1835002 62.997523,16.0515002 61.736523,16.7255002 C60.767523,17.2425002 59.786523,17.7295002 58.765523,18.1345002 C56.895523,18.8765002 54.948523,19.3065002 52.964523,19.5825002 C52.499523,19.6475002 51.939523,19.7385002 51.671523,19.2765002 C51.364523,18.7465002 51.791523,18.3175002 52.120523,17.9295002 C53.249523,16.5965002 54.590523,15.5375002 56.167523,14.7695002 C58.372523,13.6955002 60.710523,13.0715002 63.110523,12.6465002 C63.484523,12.5805002 63.872523,12.5635002 64.318523,12.2535002 C61.211523,11.9095002 58.244523,11.7225002 55.266523,11.6235002 C54.270523,11.5905002 53.581523,11.8435002 52.985523,12.6745002 C50.602523,15.9975002 46.970523,17.4525002 43.383523,18.9565002 C43.095523,19.0775002 42.735523,19.1755002 42.508523,18.8845002 C42.297523,18.6155002 42.413523,18.2825002 42.560523,17.9935002 C43.789523,15.5885002 45.207523,13.3515002 47.766523,12.1255002 C47.928523,12.0485002 48.140523,12.0055002 48.207523,11.6605002 C45.803523,11.7835002 43.431523,11.8775002 41.069523,12.1385002 C40.629523,12.1875002 40.419523,12.4785002 40.281523,12.8965002 C39.995523,13.7565002 39.566523,14.5515002 38.977523,15.2485002 C36.433523,18.2605002 32.927523,19.4625002 29.272523,20.3545002 C28.599523,20.5185002 28.338523,20.1155002 28.590523,19.4515002 C28.659523,19.2715002 28.760523,19.0925002 28.883523,18.9445002 C30.618523,16.8675002 32.311523,14.7505002 34.596523,13.2215002 C34.789523,13.0935002 35.118523,13.0385002 35.081523,12.6595002 C32.959523,12.8535002 30.854523,13.0595002 28.746523,13.2275002 C28.282523,13.2635002 27.950523,13.4465002 27.606523,13.7375002 C26.529523,14.6485002 25.442523,15.5495002 24.326523,16.4115002 C22.314523,17.9655002 20.056523,19.0235002 17.593523,19.6455002 C17.288523,19.7225002 16.988523,19.8335002 16.669523,19.7825002 C16.245523,19.7125002 16.031523,19.4885002 16.205523,19.0445002 C16.276523,18.8645002 16.375523,18.6925002 16.479523,18.5275002 C17.731523,16.5545002 19.385523,15.0515002 21.553523,14.1295002 C21.884523,13.9895002 22.315523,13.9695002 22.618523,13.4145002 C21.085523,13.4095002 19.677523,13.4365002 18.271523,13.3875002 C17.715523,13.3675002 17.404523,13.6625002 17.073523,13.9975002 C15.840523,15.2435002 14.381523,16.1405002 12.756523,16.7785002 C11.514523,17.2655002 10.228523,17.6145002 8.93552303,17.9305002 C8.33852303,18.0755002 7.59452303,18.3665002 7.21352303,17.7125002 C6.84952303,17.0885002 7.39852303,16.5215002 7.79052303,16.0435002 C8.97552303,14.6035002 10.531523,13.7335002 12.304523,13.2225002 C12.492523,13.1675002 12.693523,13.1465002 12.870523,13.0685002 C13.039523,12.9925002 13.310523,13.0995002 13.394523,12.7845002 C10.687523,12.2325002 8.03152303,11.5655002 5.53052303,10.3975002 C5.16952303,10.2295002 4.88652303,10.2345002 4.57752303,10.5205002 C4.19952303,10.8685002 3.73252303,11.1115002 3.23652303,11.2265002 C2.38052303,11.4265002 1.51152303,11.5055002 0.794523032,10.8355002 C-0.619476968,9.51350021 -0.055476968,6.81950021 1.76952303,6.13450021 C3.81752303,5.36750021 5.30752303,6.29850021 5.54452303,8.53350021 C5.58852303,8.94850021 5.72352303,9.15850021 6.10352303,9.30250021 C8.45052303,10.1895002 10.849523,10.8755002 13.337523,11.3135002 C13.327523,11.2175002 13.337523,11.1675002 13.317523,11.1435002 C13.165523,10.9705002 13.013523,10.7955002 12.851523,10.6315002 C11.460523,9.21650021 10.390523,7.58750021 9.61852303,5.76350021 C9.43652303,5.33350021 9.25452303,4.88850021 9.32252303,4.40050021 C9.43452303,3.58450021 10.055523,3.21250021 10.723523,3.61850021 C13.633523,5.38950021 16.113523,7.53650021 17.074523,10.9975002 C17.339523,11.9525002 17.373523,11.9645002 18.357523,12.0195002 C20.589523,12.1455002 22.824523,12.1915002 25.058523,12.0855002 C25.293523,12.0745002 25.613523,12.2345002 25.779523,11.8125002 C23.368523,10.3115002 21.797523,8.09850021 20.647523,5.55250021 C20.325523,4.84050021 19.999523,4.12250021 19.864523,3.34250021 C19.765523,2.76950021 19.821523,2.23450021 20.344523,1.87050021 C20.888523,1.49350021 21.302523,1.88250021 21.731523,2.14050021 C21.832523,2.20050021 21.927523,2.27150021 22.026523,2.33550021 C25.216523,4.37750021 26.799523,7.54150021 28.007523,10.9535002 C28.333523,11.8735002 28.283523,11.9255002 29.217523,11.8395002 C31.871523,11.5955002 34.523523,11.3275002 37.173523,11.0495002 C37.429523,11.0225002 37.764523,11.1155002 37.936523,10.7675002 C37.748523,10.7095002 37.565523,10.6485002 37.381523,10.5955002 C35.946523,10.1765002 34.555523,9.65850021 33.313523,8.80150021 C31.848523,7.79050021 30.843523,6.40950021 30.144523,4.79850021 C29.838523,4.09350021 29.979523,3.45250021 30.421523,3.06150021 C30.911523,2.62650021 31.371523,2.91450021 31.835523,3.11650021 C31.978523,3.17950021 32.117523,3.25250021 32.259523,3.31850021 C35.573523,4.84250021 38.358523,6.99550021 40.310523,10.1245002 C40.601523,10.5925002 40.951523,10.7105002 41.481523,10.6565002 C45.149523,10.2835002 48.825523,10.0285002 52.514523,10.0135002 C52.657523,10.0135002 52.835523,10.0535002 52.912523,9.84150021 C52.816523,9.50950021 52.497523,9.41150021 52.239523,9.26450021 C49.538523,7.73350021 47.864523,5.40650021 46.966523,2.47850021 C46.852523,2.10550021 46.763523,1.72150021 46.700523,1.33650021 C46.622523,0.859500207 46.839523,0.497500207 47.237523,0.246500207 C47.646523,-0.0124997935 47.993523,0.183500207 48.306523,0.441500207 C50.408523,2.16950021 52.351523,4.03650021 53.533523,6.55350021 C53.966523,7.47550021 54.433523,8.38350021 54.825523,9.32250021 C55.059523,9.88350021 55.410523,10.0575002 55.995523,10.0475002 C57.368523,10.0225002 58.737523,10.1225002 60.105523,10.2515002 C61.468523,10.3795002 62.834523,10.4765002 64.318523,10.5975002 C64.204523,10.3665002 64.187523,10.2875002 64.139523,10.2425002 L64.139523,10.2425002 Z" id="Fill-8"></path>
            </g>
        </g>
    </g>
</svg>